<svg width="100" height="100" viewBox="0 0 100 100" fill="none" xmlns="http://www.w3.org/2000/svg">
<rect width="100" height="100" fill="white"/>
<g clip-path="url(#clip0_1_24)">
<path d="M20.0093 70.777L19.2602 73.7746C18.9811 74.8911 19.2271 76.0501 19.9352 76.9568C20.6432 77.8635 21.7091 78.3839 22.8587 78.3839C24.5633 78.3839 26.044 77.228 26.4571 75.5739L27.6477 70.8148H20.9854C20.6574 70.8148 20.3309 70.8022 20.0093 70.777Z" fill="#C79265"/>
<path d="M79.9907 70.777C79.669 70.8022 79.3426 70.8148 79.0146 70.8148H72.3539L73.5429 75.5739C73.956 77.228 75.4367 78.3839 77.1413 78.3839C78.2908 78.3839 79.3568 77.8635 80.0648 76.9568C80.7729 76.0501 81.0189 74.8911 80.7397 73.7746L79.9907 70.777Z" fill="#C79265"/>
<path d="M17.3585 35.5242C21.3717 35.8569 24.7541 38.8278 25.5551 42.8299L27.4963 52.5372C27.7139 53.6252 28.6774 54.4153 29.7875 54.4153H70.2125C71.3226 54.4153 72.2861 53.6252 72.5037 52.5372L74.4448 42.8299C75.1891 39.11 78.1647 36.2811 81.8026 35.633L82.1195 33.8606C82.662 30.8188 81.8357 27.7155 79.8519 25.3454C77.8682 22.9754 74.9573 21.6161 71.8666 21.6161H27.2613C24.1012 21.6161 21.1493 23.0258 19.1625 25.4826C17.1756 27.941 16.4155 31.1231 17.0778 34.2122L17.3585 35.5242Z" fill="#C79265"/>
<path d="M88.2184 40.1082C86.9741 38.7784 85.2162 38.0157 83.3951 38.0157C82.6733 38.0157 81.974 38.1352 81.3166 38.3545L81.3169 38.3531C79.1028 39.0782 77.3603 41.0348 76.9185 43.3252L74.9772 53.0317C74.5245 55.2952 72.5204 56.9381 70.212 56.9381H29.788C27.4796 56.9381 25.4755 55.2953 25.0228 53.0317L23.0815 43.3252C22.5946 40.7686 20.474 38.6483 17.9215 38.1497L17.9216 38.1503C15.7113 37.6814 13.3174 38.4506 11.7815 40.1082C10.5374 41.4381 9.89323 43.2429 10.0143 45.0599L10.8933 58.2431C10.9165 63.6697 15.2453 68.0966 20.6327 68.2828L20.6321 68.2855C20.7488 68.2903 20.8671 68.2918 20.9853 68.2918H28.2784H71.7231H79.0146C79.1329 68.2918 79.2512 68.2903 79.3679 68.2855L79.3672 68.2828C84.7546 68.0966 89.0835 63.6697 89.1065 58.2431L89.9855 45.0599C90.1066 43.2429 89.4626 41.438 88.2184 40.1082Z" fill="#755339"/>
</g>
<defs>
<clipPath id="clip0_1_24">
<rect width="80" height="80" fill="white" transform="translate(10 10)"/>
</clipPath>
</defs>
</svg>
